<?xml version="1.0" encoding="iso-8859-1"?>
<!-- Generator: Adobe Illustrator 16.0.0, SVG Export Plug-In . SVG Version: 6.00 Build 0)  -->
<!DOCTYPE svg PUBLIC "-//W3C//DTD SVG 1.1//EN" "http://www.w3.org/Graphics/SVG/1.1/DTD/svg11.dtd">
<svg version="1.1" id="Capa_1" xmlns="http://www.w3.org/2000/svg" xmlns:xlink="http://www.w3.org/1999/xlink" x="0px" y="0px"
	 width="584.139px" height="584.138px" viewBox="0 0 584.139 584.138" style="enable-background:new 0 0 584.139 584.138;"
	 xml:space="preserve">
<g>
	<g>
		<path d="M579.895,377.584c-2.399-1.2-4.6-1.8-7.3-0.9c-3.1,0.9-6.1,3.4-6.7,6.7c-2.8,15.9-15.3,21.4-29.1,19.9
			c7.3-20.8,11.6-42.8,10.399-63.3c-0.6-12.2-19-12.2-19,0c0,19.6-4,38.899-10.399,57.199c-13.5-8.6-18.101-24.199-14.7-41.3
			c1.5-7.3-8.6-9.8-11.3-3.1c-9.8,23.899,0,47.1,19.899,60c-2.8,6.1-5.5,12.2-8.3,18.399c-3.399,6.7-7,12.9-11,19
			c-18.7-15.899-41-28.8-64.3-35.8c48.7-36.1,65.2-93,52.9-145.7c20.199-22.6,37.6-49,44.1-73.1c1.8-6.4-5.5-11.9-11.3-8.601
			c-18.101,10.4-37,19.601-56,28.801c-6.7-9.801-14.7-19.301-23.9-27.801c-13.2-11.899-28.2-21.399-44.399-28.5
			c0.3-0.899,0.6-2.1,0.6-3.399c0-27.5-14.1-41.9-34.3-48.3c0.3-2.101-0.3-4.601-1.8-6.4c-36.4-45.9-131.9-67.3-189.1-48
			c0-0.3,0-0.3,0-0.6c0.3-6.4-3.1-14.4-6.1-19.9c-2.4-4.3-6.1-8-10.7-9.5c-9.2-3.1-17.4,4.6-22.3,11c-7.3,9.8-19.9,40.1-0.9,45
			c0.6,0.3,1.2,0.3,1.8,0.3c-35.8,46.2-26.3,133.4-8.6,181.2c0.9,2.8,3.1,3.7,5.2,3.7c-0.9,27.5,8.9,53.2,40.7,46.5
			c2.4,26.601,9.2,51.4,18.4,67.9c10.7,19.6,25.4,34.6,42.5,45.6c-19.9,7.3-35.2,30.6-47.1,46.8c-3.7,4.9-7,9.8-10.1,15.3
			c-25.1-15.3-48.3-34.3-69.2-50.8c-4.9-4-10.7-8.6-16.5-13.2c4.3-5.5,8.3-11.899,11.3-19.899c15.3-38.2,13.2-109.5-20.8-138.301
			c-7.7-6.399-20.2,1.801-14.4,11c20.5,31.801,28.2,65.801,22.6,103.7c-1.5,11-4.9,23.301-11,33c-27.8-24.5-55.1-56.3-41-89
			c2.1-5.199-1.5-11.899-7.7-10.1c-54.8,15,12.5,90.6,34.3,112.6c-15.9,6.7-34.6-7-47.1-15.6c-4.9-3.399-10.7,4.3-6.4,8.3
			c21.1,21.101,45,26.9,64.3,17.101c24.2,22.3,57.2,50.5,91.5,68.8c-8,15.899-14.1,32.7-17.4,49.3c-1.5,8.3,9.5,11,12.5,3.4
			c6.1-15.601,12.9-30.601,20.5-45c17.1,7.6,34.6,12.199,50.8,11.899c6.7,0,8.3-10.1,1.5-11.899c-14.4-3.4-28.8-9.5-42.5-16.801
			c1.8-2.8,3.7-5.8,5.5-8.6c14.1-20.2,36.4-34.6,49.3-54.8c53.5,27.2,124.799,20.8,175.899-9.2c23.601,11.9,45.301,25.7,65.801,42.8
			c-1.2,1.5-2.4,2.8-3.7,4.3c-7.601,8.301-19.3,11-25.7,19.9c-1.2,1.8-0.3,4.6,1.5,5.8c13.8,8,29.1-4,41.3-17.7
			c20.5,21.101,30.601,45,45.9,69.801c4,6.399,15,4,14.7-4c-0.9-30.601-26.301-59.101-46.5-79.601c-0.601-0.6-1.2-1.2-1.801-1.8
			c2.4-3.4,4.601-6.4,6.101-8.9c6.7-10.1,12.899-21.399,18.1-33.399c23.601,5.2,50.2-6.101,54.2-32.101
			C584.795,384.285,584.194,379.684,579.895,377.584z M164.395,305.684c-51.4-5.5-17.1-80.2-5.8-99.8c19-32.7,53.5-57.5,88.1-71.3
			c34-13.5,122.699-36.4,128.199,18.7c-19.6-6.4-40.1-9.801-60.6-10.101c-22.6,0-86.3,11.3-93.9,39.5
			C174.495,196.084,160.695,253.285,164.395,305.684z M404.895,409.384c-62.399,41.3-156,29.4-201.599-30.6
			c-39.5-52-29.1-142.9,20.8-184.2c4.3,2.1,10.4,0.899,11.6-4.9c2.1-10.1,35.5-19.3,42.8-21.7c17.699-5.8,36.399-6.1,54.8-4.899
			c35.5,2.399,68.8,20.5,94.899,44.1c5.5,5.2,10.4,10.4,15,15.9c-28.8,14.1-56.899,28.5-83.5,46.2c-1.199,0.3-2.1,0.899-3.1,2.1
			c-0.6,0.6-1.2,0.9-2.1,1.2c-3.101,2.1-2.801,5.5-0.9,7.7c-8,45.6,46.8,52.3,79.3,30.899c11-7.3,22.9-16.8,34.601-28.2
			C472.495,330.384,448.995,380.285,404.895,409.384z"/>
		<path d="M306.995,263.684c-12.2-13.2-33.4-20.5-47.7-6.399c-5.2,5.199-7.6,13.5-5.2,20.199c3.1,9.2,12.5,14.101,21.4,15.601
			c5.5,0.9,9.8-6.7,4-9.5c-4-2.101-9.8-5.2-11.3-9.2c-0.9-3.1-0.3-4.9,1.8-7.3c8.3-8.9,21.1-2.101,28.199,5.2
			C303.595,278.384,312.194,269.484,306.995,263.684z"/>
		<path d="M388.694,221.785c-4-9.5-10.1-18.101-20.199-21.4c-7.601-2.4-15.301,0.3-21.101,5.2c-5.5,4.6-8.899,13.2-8,20.5
			c0.601,4.3,1.8,8.3,4.601,11.3c2.8,3,8.6,4.9,10.699,0c1.801-4.3-1.199-8.3-1.199-12.5c0-3.4,1.8-6.7,4-9.2
			c8.3-9.2,16.8,5.8,19.899,12.2C380.995,235.884,392.095,229.484,388.694,221.785z"/>
	</g>
</g>
<g>
</g>
<g>
</g>
<g>
</g>
<g>
</g>
<g>
</g>
<g>
</g>
<g>
</g>
<g>
</g>
<g>
</g>
<g>
</g>
<g>
</g>
<g>
</g>
<g>
</g>
<g>
</g>
<g>
</g>
</svg>
